<?xml version="1.0" encoding="UTF-8"?>
<svg version="1.1" xmlns="http://www.w3.org/2000/svg" width="500" height="436">
<path d="M0 0 C18.60570093 16.65954352 26.38880595 40.49728965 27.85400391 64.8671875 C28.15479671 74.40579867 28.04452666 83.95059141 27.97900391 93.4921875 C27.96894847 96.05989232 27.95982718 98.62760098 27.95166016 101.1953125 C27.9298628 107.41935604 27.8965906 113.64325326 27.85400391 119.8671875 C25.87400391 119.8671875 23.89400391 119.8671875 21.85400391 119.8671875 C21.85400391 121.8471875 21.85400391 123.8271875 21.85400391 125.8671875 C23.83400391 125.8671875 25.81400391 125.8671875 27.85400391 125.8671875 C27.85400391 128.1771875 27.85400391 130.4871875 27.85400391 132.8671875 C26.53400391 132.8671875 25.21400391 132.8671875 23.85400391 132.8671875 C23.85400391 135.1771875 23.85400391 137.4871875 23.85400391 139.8671875 C25.17400391 140.1971875 26.49400391 140.5271875 27.85400391 140.8671875 C27.52400391 142.8471875 27.19400391 144.8271875 26.85400391 146.8671875 C25.53400391 146.8671875 24.21400391 146.8671875 22.85400391 146.8671875 C22.85400391 148.8471875 22.85400391 150.8271875 22.85400391 152.8671875 C21.53400391 152.8671875 20.21400391 152.8671875 18.85400391 152.8671875 C18.85400391 154.8471875 18.85400391 156.8271875 18.85400391 158.8671875 C13.97900391 155.9921875 13.97900391 155.9921875 12.85400391 154.8671875 C12.78173889 153.01431248 12.77019171 151.15884872 12.79150391 149.3046875 C12.80052734 148.29277344 12.80955078 147.28085938 12.81884766 146.23828125 C12.83625 145.06458984 12.83625 145.06458984 12.85400391 143.8671875 C11.49855469 144.01027344 11.49855469 144.01027344 10.11572266 144.15625 C8.93623047 144.26710937 7.75673828 144.37796875 6.54150391 144.4921875 C5.36974609 144.60820312 4.19798828 144.72421875 2.99072266 144.84375 C-0.14599609 144.8671875 -0.14599609 144.8671875 -3.14599609 142.8671875 C-3.33349609 139.2421875 -3.33349609 139.2421875 -3.14599609 135.8671875 C-4.46599609 135.8671875 -5.78599609 135.8671875 -7.14599609 135.8671875 C-7.14599609 133.2271875 -7.14599609 130.5871875 -7.14599609 127.8671875 C-5.49599609 127.8671875 -3.84599609 127.8671875 -2.14599609 127.8671875 C-2.14599609 125.8871875 -2.14599609 123.9071875 -2.14599609 121.8671875 C-3.79599609 121.8671875 -5.44599609 121.8671875 -7.14599609 121.8671875 C-7.15408295 121.19892441 -7.1621698 120.53066132 -7.17050171 119.84214783 C-7.25730717 112.81638212 -7.35683279 105.7908743 -7.46337891 98.76538086 C-7.50139904 96.15181854 -7.53629616 93.53820868 -7.56787109 90.92456055 C-6.90817238 58.20255669 -6.90817238 58.20255669 -21.14599609 29.8671875 C-21.78150391 29.17882812 -22.41701172 28.49046875 -23.07177734 27.78125 C-32.12149714 18.88042871 -43.71479219 15.80920568 -56.14599609 15.5546875 C-69.48731129 15.68548471 -81.78519527 19.59461545 -91.42724609 29.12109375 C-103.96701918 43.69624046 -104.46215389 60.426007 -104.44677734 78.63671875 C-104.45067192 80.56426586 -104.45500814 82.49181212 -104.45976257 84.4193573 C-104.46719657 88.44797555 -104.46695431 92.47650613 -104.46166992 96.50512695 C-104.45588304 101.63565037 -104.4728013 106.76581186 -104.4960146 111.89627552 C-104.5108376 115.87458856 -104.51161198 119.85281619 -104.50850487 123.83115196 C-104.50901391 125.72114465 -104.51417219 127.61114264 -104.52431679 129.50110817 C-104.60463121 146.55603721 -103.34548592 164.11578639 -90.95068359 177.28125 C-79.71921976 187.15132428 -66.91506083 190.76300254 -52.23974609 190.1875 C-43.83038853 189.64433053 -36.57044327 187.79100098 -29.66943359 182.85546875 C-28.14599609 181.8671875 -28.14599609 181.8671875 -26.14599609 181.8671875 C-26.14599609 181.2071875 -26.14599609 180.5471875 -26.14599609 179.8671875 C-27.01321289 179.45968262 -27.01321289 179.45968262 -27.89794922 179.04394531 C-31.78655342 177.00842487 -35.15752825 174.26463254 -38.64599609 171.6171875 C-39.40525391 171.05644531 -40.16451172 170.49570312 -40.94677734 169.91796875 C-46.20787185 165.9283822 -50.08380993 162.43309818 -52.02099609 155.9296875 C-52.20481454 151.42613559 -51.6248773 147.7517047 -48.77880859 144.125 C-45.34591628 140.55547515 -43.06166912 139.05499858 -37.95849609 138.5546875 C-29.29860709 139.26451447 -23.75103801 144.6525236 -17.41162109 150.09375 C-14.10471346 152.92681416 -10.70363728 155.62619442 -7.27099609 158.3046875 C-6.68624512 158.76174072 -6.10149414 159.21879395 -5.49902344 159.68969727 C-4.30915838 160.61900436 -3.1188903 161.54779565 -1.92822266 162.47607422 C1.0050573 164.76563986 3.92916813 167.06685143 6.85400391 169.3671875 C10.38623304 172.14438349 13.91987012 174.91970488 17.45947266 177.6875 C20.932056 180.40431351 24.39599393 183.13185356 27.85400391 185.8671875 C28.38751465 186.28806641 28.92102539 186.70894531 29.47070312 187.14257812 C30.9785417 188.3360683 32.47893568 189.53894552 33.97900391 190.7421875 C35.25130859 191.75925781 35.25130859 191.75925781 36.54931641 192.796875 C41.32962089 197.09104683 43.52530815 200.29178653 43.94775391 206.66015625 C43.7420447 211.50289374 41.43153141 214.20303087 38.35400391 217.7421875 C34.74304566 220.46155112 31.21702622 220.75322176 26.78369141 220.54296875 C21.13786454 219.24066469 17.18771721 215.54277242 12.85400391 211.8671875 C10.96034431 210.36444423 9.06462227 208.86429494 7.16650391 207.3671875 C5.72697398 206.20302644 4.2886749 205.0373313 2.85400391 203.8671875 C2.43892578 204.2075 2.02384766 204.5478125 1.59619141 204.8984375 C-15.12413652 218.05082934 -32.62556241 224.04799438 -53.79833984 224.16235352 C-55.26230616 224.17377065 -56.72623433 224.19405582 -58.18994141 224.22387695 C-71.84367785 224.50122816 -84.2821135 222.5811089 -96.52099609 216.0546875 C-97.52175171 215.53539673 -97.52175171 215.53539673 -98.54272461 215.00561523 C-103.88626315 212.1598476 -108.660299 208.95222039 -113.14599609 204.8671875 C-113.90267578 204.19042969 -114.65935547 203.51367188 -115.43896484 202.81640625 C-130.47648948 188.63529005 -139.30625685 167.3041233 -140.24382782 146.71923828 C-140.28873552 144.40156658 -140.30391535 142.08568182 -140.30712891 139.76757812 C-140.31209381 138.8947821 -140.31705872 138.02198608 -140.32217407 137.1227417 C-140.33668858 134.2562987 -140.34358129 131.38991111 -140.34912109 128.5234375 C-140.35194847 127.53574875 -140.35477585 126.54806 -140.3576889 125.53044128 C-140.37264145 120.29893734 -140.38189457 115.06746068 -140.38623047 109.8359375 C-140.39169569 104.47475408 -140.4156939 99.1138271 -140.44420242 93.75272369 C-140.4629765 89.59329539 -140.46804229 85.4339269 -140.46956635 81.27445984 C-140.47256242 79.30041611 -140.48048565 77.32637264 -140.49375153 75.35237122 C-140.65122357 50.10969095 -136.32590383 24.73144283 -118.21191406 5.87426758 C-116.87182868 4.52330413 -115.50948285 3.19452881 -114.14599609 1.8671875 C-113.46666016 1.19042969 -112.78732422 0.51367188 -112.08740234 -0.18359375 C-82.76648621 -27.67576251 -29.62914122 -25.16984889 0 0 Z M11.85400391 92.8671875 C11.85400391 96.8271875 11.85400391 100.7871875 11.85400391 104.8671875 C15.81400391 104.8671875 19.77400391 104.8671875 23.85400391 104.8671875 C23.85400391 100.9071875 23.85400391 96.9471875 23.85400391 92.8671875 C19.89400391 92.8671875 15.93400391 92.8671875 11.85400391 92.8671875 Z M0.85400391 95.8671875 C0.85400391 97.8471875 0.85400391 99.8271875 0.85400391 101.8671875 C3.16400391 101.8671875 5.47400391 101.8671875 7.85400391 101.8671875 C7.85400391 99.8871875 7.85400391 97.9071875 7.85400391 95.8671875 C5.54400391 95.8671875 3.23400391 95.8671875 0.85400391 95.8671875 Z M-1.14599609 107.8671875 C-1.14599609 111.4971875 -1.14599609 115.1271875 -1.14599609 118.8671875 C2.48400391 118.8671875 6.11400391 118.8671875 9.85400391 118.8671875 C9.85400391 115.2371875 9.85400391 111.6071875 9.85400391 107.8671875 C6.22400391 107.8671875 2.59400391 107.8671875 -1.14599609 107.8671875 Z M13.85400391 108.8671875 C13.85400391 111.1771875 13.85400391 113.4871875 13.85400391 115.8671875 C15.83400391 115.8671875 17.81400391 115.8671875 19.85400391 115.8671875 C19.85400391 113.5571875 19.85400391 111.2471875 19.85400391 108.8671875 C17.87400391 108.8671875 15.89400391 108.8671875 13.85400391 108.8671875 Z M8.85400391 125.8671875 C8.85400391 127.8471875 8.85400391 129.8271875 8.85400391 131.8671875 C10.83400391 131.8671875 12.81400391 131.8671875 14.85400391 131.8671875 C14.85400391 129.8871875 14.85400391 127.9071875 14.85400391 125.8671875 C12.87400391 125.8671875 10.89400391 125.8671875 8.85400391 125.8671875 Z M0.85400391 133.8671875 C0.85400391 135.8471875 0.85400391 137.8271875 0.85400391 139.8671875 C3.16400391 139.8671875 5.47400391 139.8671875 7.85400391 139.8671875 C7.85400391 137.8871875 7.85400391 135.9071875 7.85400391 133.8671875 C5.54400391 133.8671875 3.23400391 133.8671875 0.85400391 133.8671875 Z M11.85400391 135.8671875 C11.85400391 137.8471875 11.85400391 139.8271875 11.85400391 141.8671875 C14.16400391 141.8671875 16.47400391 141.8671875 18.85400391 141.8671875 C18.85400391 139.8871875 18.85400391 137.9071875 18.85400391 135.8671875 C16.54400391 135.8671875 14.23400391 135.8671875 11.85400391 135.8671875 Z " fill="#D3276F" transform="translate(293.14599609375,89.1328125)"/>
<path d="M0 0 C4.46370209 0.70852414 5.01443142 1.42789374 7.9375 4.625 C9.27649856 5.10692995 10.63336621 5.54065534 12 5.9375 C15.58038013 7.1599059 15.86341401 7.50376837 18 11 C18.90426769 14.49650175 19.06240214 16.25029359 17.9375 19.625 C19.030625 19.728125 20.12375 19.83125 21.25 19.9375 C25.7629497 20.7788974 25.7629497 20.7788974 27.9375 23.625 C28.84215713 26.61524393 29.13565166 29.50702528 28.9375 32.625 C27.08959902 34.74666409 25.52090773 35.36152554 23 36.5 C20.68225259 37.61716204 20.68225259 37.61716204 18.5625 40.25 C15.9375 42.625 15.9375 42.625 12.625 42.9375 C11.738125 42.834375 10.85125 42.73125 9.9375 42.625 C10.2675 43.285 10.5975 43.945 10.9375 44.625 C16.69182027 44.39012978 19.07953528 42.97106061 23.2265625 39.05859375 C25.57136194 37.09388737 27.99534676 36.34259835 30.9375 35.625 C33.57952986 40.13846767 34.61625514 43.38888889 33.9375 48.625 C32.0625 51.0625 32.0625 51.0625 29.9375 52.625 C29.2775 52.625 28.6175 52.625 27.9375 52.625 C28.05609375 53.21667969 28.1746875 53.80835938 28.296875 54.41796875 C29.35228151 60.88761065 29.35228151 60.88761065 27.25 64.625 C24.93270789 66.62914452 23.83488316 67.03942361 20.9375 67.625 C20.99550781 68.20507812 21.05351562 68.78515625 21.11328125 69.3828125 C21.36776068 73.78894205 21.21697198 76.12916261 19 80.0625 C15.5433235 82.95482115 13.40183716 83.43830352 9.07421875 84.125 C6.07183182 84.82756952 4.30117639 86.70850563 1.9375 88.625 C-1.5393459 89.12169227 -3.31330718 89.05021754 -6.375 87.3125 C-8.50755524 85.17994476 -9.02010785 83.43774412 -9.17602539 80.44848633 C-9.17078857 79.62630615 -9.16555176 78.80412598 -9.16015625 77.95703125 C-9.15693359 77.06435547 -9.15371094 76.17167969 -9.15039062 75.25195312 C-9.14201172 74.32318359 -9.13363281 73.39441406 -9.125 72.4375 C-9.12048828 71.49712891 -9.11597656 70.55675781 -9.11132812 69.58789062 C-9.09954626 67.26686288 -9.08309558 64.94596356 -9.0625 62.625 C-5.61463198 60.90106599 -1.83256772 61.12277073 1.9375 61.625 C4.5 63.5 4.5 63.5 5.9375 65.625 C5.9375 66.285 5.9375 66.945 5.9375 67.625 C3.4375 69.25 3.4375 69.25 0.9375 70.625 C1.2675 71.615 1.5975 72.605 1.9375 73.625 C2.9275 72.635 3.9175 71.645 4.9375 70.625 C6.5875 71.285 8.2375 71.945 9.9375 72.625 C9.9375 74.275 9.9375 75.925 9.9375 77.625 C10.5975 77.625 11.2575 77.625 11.9375 77.625 C11.6075 74.985 11.2775 72.345 10.9375 69.625 C10.2775 69.625 9.6175 69.625 8.9375 69.625 C8.545625 68.531875 8.15375 67.43875 7.75 66.3125 C6.64776727 63.81477996 5.90646442 62.59584536 3.875 60.6875 C-0.10916875 59.05810653 -0.10916875 59.05810653 -9.0625 59.625 C-9.0625 52.695 -9.0625 45.765 -9.0625 38.625 C-6.7525 39.285 -4.4425 39.945 -2.0625 40.625 C3.24719135 40.44190719 6.16968562 39.39281438 9.9375 35.625 C10.288125 34.92375 10.63875 34.2225 11 33.5 C11.9375 31.625 11.9375 31.625 13.9375 30.75 C16.28437631 29.7050808 16.28437631 29.7050808 17.1875 26.5 C17.435 25.55125 17.6825 24.6025 17.9375 23.625 C15.74993976 24.43525883 15.74993976 24.43525883 15.1875 26.625 C13.9375 28.625 13.9375 28.625 10.8125 29.375 C9.389375 29.49875 9.389375 29.49875 7.9375 29.625 C7.256875 28.4184375 7.256875 28.4184375 6.5625 27.1875 C5.19024335 24.53643428 5.19024335 24.53643428 2.9375 23.625 C4.22182339 27.12205129 4.22182339 27.12205129 5.9375 30.625 C6.9275 30.955 7.9175 31.285 8.9375 31.625 C7.49563953 36.19089147 7.49563953 36.19089147 5.25 37.9375 C1.91192699 38.92990009 -0.59538536 39.05078601 -4.0625 38.625 C-6.69354911 36.97054117 -7.64346949 36.28882945 -9.0625 33.625 C-9.8183027 29.13754181 -9.7595329 24.7279739 -9.6875 20.1875 C-9.70683594 18.97255859 -9.72617188 17.75761719 -9.74609375 16.50585938 C-9.69177434 6.59256762 -9.69177434 6.59256762 -6.77734375 2.81640625 C-3.09031987 -0.1597382 -3.09031987 -0.1597382 0 0 Z " fill="#EF4E4F" transform="translate(249.0625,128.375)"/>
<path d="M0 0 C3.5 0.5 3.5 0.5 5.875 2.3125 C9.27842203 6.89402966 8.99896902 12.02009468 8.5 17.5 C6.88727433 21.18623011 5.869675 22.25355 2.5 24.5 C0.34375 24.6953125 0.34375 24.6953125 -2 24.625 C-3.16015625 24.59792969 -3.16015625 24.59792969 -4.34375 24.5703125 C-5.0553125 24.54710937 -5.766875 24.52390625 -6.5 24.5 C-7.49 24.5 -8.48 24.5 -9.5 24.5 C-6.40231277 26.56512482 -5.65024391 26.7740631 -2.125 26.75 C-1.37476563 26.75515625 -0.62453125 26.7603125 0.1484375 26.765625 C3.02564648 26.54574254 3.02564648 26.54574254 7.5 24.5 C7.5 33.41 7.5 42.32 7.5 51.5 C5.52 50.51 3.54 49.52 1.5 48.5 C-1.66558592 48.16732759 -4.45710598 48.57414728 -7.5 49.5 C-10.33333333 51.66666667 -10.33333333 51.66666667 -12.5 54.5 C-13.799375 55.7065625 -13.799375 55.7065625 -15.125 56.9375 C-17.61775343 59.62704976 -19.02459935 62.16093537 -20.5 65.5 C-19.51 65.5 -18.52 65.5 -17.5 65.5 C-17.314375 64.571875 -17.314375 64.571875 -17.125 63.625 C-16.5 61.5 -16.5 61.5 -14.5 59.5 C-11.375 59.875 -11.375 59.875 -8.5 60.5 C-8.17 62.15 -7.84 63.8 -7.5 65.5 C-6.51 65.5 -5.52 65.5 -4.5 65.5 C-6.42391649 60.18588506 -6.42391649 60.18588506 -10.5 56.5 C-9.13016497 53.33884224 -8.5109362 52.5072908 -5.5 50.5 C-1.32737663 50.03637518 0.78714371 50.0505906 4.375 52.3125 C9.0585385 57.13378963 7.72282361 64.12918024 7.75 70.4375 C7.770625 71.63052734 7.79125 72.82355469 7.8125 74.05273438 C7.82023437 75.77266602 7.82023437 75.77266602 7.828125 77.52734375 C7.84214355 79.10116821 7.84214355 79.10116821 7.85644531 80.70678711 C7.44900841 83.89958546 6.76567351 85.24119812 4.5 87.5 C0.55469308 88.59591859 -1.56539001 88.93615133 -5.3125 87.1875 C-7.5 85.5 -7.5 85.5 -9.5 83.5 C-10.634375 83.231875 -11.76875 82.96375 -12.9375 82.6875 C-16.5 81.5 -16.5 81.5 -18.4375 79.3125 C-19.72708006 75.89890571 -19.71292279 73.11968736 -19.5 69.5 C-21.10875 69.2215625 -21.10875 69.2215625 -22.75 68.9375 C-25.91156758 68.03786695 -27.27210803 66.98619826 -29 64.1875 C-30.5 60.5 -30.5 60.5 -30.5 57.75 C-29.26464539 54.97045213 -28.1651239 53.94678154 -25.5 52.5 C-24.18 52.5 -22.86 52.5 -21.5 52.5 C-21.231875 51.71625 -20.96375 50.9325 -20.6875 50.125 C-19.5 47.5 -19.5 47.5 -16.5 45.5 C-13.3125 45.375 -13.3125 45.375 -10.5 45.5 C-10.5 44.84 -10.5 44.18 -10.5 43.5 C-16.6474197 43.71569894 -19.40003797 44.7690593 -23.82421875 49 C-26.12821498 51.0623183 -28.68549676 52.26436443 -31.5 53.5 C-31.809375 52.695625 -32.11875 51.89125 -32.4375 51.0625 C-33.26335345 48.60919595 -33.26335345 48.60919595 -34.5 47.5 C-35.0915493 41.22957746 -35.0915493 41.22957746 -32.625 38.1875 C-31.92375 37.630625 -31.2225 37.07375 -30.5 36.5 C-29.84 35.84 -29.18 35.18 -28.5 34.5 C-28.685625 33.406875 -28.87125 32.31375 -29.0625 31.1875 C-29.5 27.5 -29.5 27.5 -28.375 24.6875 C-26.24711947 22.20497271 -24.60331257 21.42260644 -21.5 20.5 C-21.561875 19.283125 -21.62375 18.06625 -21.6875 16.8125 C-21.6875 12.90258304 -20.98344958 10.62730688 -18.5 7.5 C-15.5 5.5 -15.5 5.5 -11.5625 5.125 C-8.09105562 4.79587936 -8.09105562 4.79587936 -5.4375 2.4375 C-3.5 0.5 -3.5 0.5 0 0 Z " fill="#B61F7F" transform="translate(229.5,128.5)"/>
<path d="M0 0 C3.00307563 2.25230672 3.82881254 3.91418243 4.41015625 7.6015625 C4.78491764 14.73163827 4.78491764 14.73163827 2.87109375 17.82421875 C1.5 19.1875 1.5 19.1875 -1 21 C-0.01 21.33 0.98 21.66 2 22 C2.75 24 2.75 24 3 26 C2.67 26.33 2.34 26.66 2 27 C-3.95616617 26.76642486 -6.73867186 25.07193578 -11 21 C-11.763125 20.278125 -12.52625 19.55625 -13.3125 18.8125 C-16.43659249 15.45699325 -16.27865741 12.66804557 -16.21484375 8.2578125 C-15.91676778 5.12530501 -15.07276127 3.35865938 -13 1 C-8.84422443 -1.61220179 -4.57341177 -1.42262704 0 0 Z M-9.875 5.5625 C-11.47279963 9.02439919 -10.87751077 11.35495524 -10 15 C-8.17084359 17.23845015 -8.17084359 17.23845015 -5.5 17.3125 C-4.675 17.209375 -3.85 17.10625 -3 17 C-0.54188375 13.31282562 -0.68881836 11.35654296 -1 7 C-1.66 6.01 -2.32 5.02 -3 4 C-6.12280379 3.43949676 -7.41356702 3.51130585 -9.875 5.5625 Z " fill="#D4241F" transform="translate(194,344)"/>
<path d="M0 0 C4.95 0 9.9 0 15 0 C15 1.32 15 2.64 15 4 C11.7 4 8.4 4 5 4 C5 5.32 5 6.64 5 8 C7.97 8 10.94 8 14 8 C14 9.32 14 10.64 14 12 C11.03 12 8.06 12 5 12 C5 13.65 5 15.3 5 17 C8.3 17 11.6 17 15 17 C15 18.32 15 19.64 15 21 C10.05 21 5.1 21 0 21 C0 14.07 0 7.14 0 0 Z " fill="#981769" transform="translate(202,344)"/>
<path d="M0 0 C2.13586678 3.20380017 2.23132175 4.01939967 2.125 7.6875 C2.10695313 8.49574219 2.08890625 9.30398438 2.0703125 10.13671875 C2.03550781 11.05904297 2.03550781 11.05904297 2 12 C2.66 12 3.32 12 4 12 C4 13.32 4 14.64 4 16 C0.98968256 16.93423645 0.13349732 17.04449911 -3 16 C-3.99 16.185625 -4.98 16.37125 -6 16.5625 C-9 17 -9 17 -12 15 C-12.4375 12.0625 -12.4375 12.0625 -12 9 C-9.61317755 6.52793389 -7.3520059 5.59857248 -4 5 C-5.98 5.33 -7.96 5.66 -10 6 C-10.66 4.68 -11.32 3.36 -12 2 C-8.33758357 -1.66241643 -4.86791914 -1.26989195 0 0 Z M-7 10 C-7 10.99 -7 11.98 -7 13 C-5.68 12.34 -4.36 11.68 -3 11 C-3 10.34 -3 9.68 -3 9 C-5.0745356 8.8509288 -5.0745356 8.8509288 -7 10 Z " fill="#9A1668" transform="translate(274,349)"/>
<path d="M0 0 C1.35439668 2.70879335 1.06501451 5.00933268 1 8 C-2.3 8 -5.6 8 -9 8 C-8.67 8.66 -8.34 9.32 -8 10 C-4.535 9.505 -4.535 9.505 -1 9 C-0.34 10.32 0.32 11.64 1 13 C-1.34374538 15.16345727 -2.74584457 15.96214706 -5.9375 16.4375 C-9.91302153 15.86956835 -11.42506202 15.10507227 -14 12 C-14.80740141 7.84873802 -14.64711453 4.29422906 -12.75 0.5 C-8.49402836 -3.14797569 -5.04407348 -1.80825276 0 0 Z M-8 3 C-8.33 3.66 -8.66 4.32 -9 5 C-7.35 5 -5.7 5 -4 5 C-4 4.34 -4 3.68 -4 3 C-5.32 3 -6.64 3 -8 3 Z " fill="#981669" transform="translate(305,350)"/>
<path d="M0 0 C1.35439668 2.70879335 1.06501451 5.00933268 1 8 C-2.3 8 -5.6 8 -9 8 C-8.67 8.66 -8.34 9.32 -8 10 C-4.535 9.505 -4.535 9.505 -1 9 C-0.34 10.32 0.32 11.64 1 13 C-1.34374538 15.16345727 -2.74584457 15.96214706 -5.9375 16.4375 C-9.91302153 15.86956835 -11.42506202 15.10507227 -14 12 C-14.80740141 7.84873802 -14.64711453 4.29422906 -12.75 0.5 C-8.49402836 -3.14797569 -5.04407348 -1.80825276 0 0 Z M-8 3 C-8.33 3.66 -8.66 4.32 -9 5 C-7.35 5 -5.7 5 -4 5 C-4 4.34 -4 3.68 -4 3 C-5.32 3 -6.64 3 -8 3 Z " fill="#981669" transform="translate(242,350)"/>
<path d="M0 0 C10.05859375 -0.09765625 10.05859375 -0.09765625 13 0 C14 1 14 1 14.1328125 3.6875 C14.13023437 4.780625 14.12765625 5.87375 14.125 7 C14.12757813 8.093125 14.13015625 9.18625 14.1328125 10.3125 C14 13 14 13 13 14 C8.66469082 14.14393457 4.33842269 14.04212061 0 14 C0 9.38 0 4.76 0 0 Z " fill="#F35D43" transform="translate(342,210)"/>
<path d="M0 0 C4.29 0 8.58 0 13 0 C13 4.62 13 9.24 13 14 C8.71 14 4.42 14 0 14 C0 9.38 0 4.76 0 0 Z " fill="#F3673A" transform="translate(336,183)"/>
<path d="M0 0 C4.62 0 9.24 0 14 0 C14 4.29 14 8.58 14 13 C3.94140625 13.09765625 3.94140625 13.09765625 1 13 C0 12 0 12 -0.09765625 9.27734375 C-0.06510417 6.18489583 -0.03255208 3.09244792 0 0 Z " fill="#F14A52" transform="translate(324,229)"/>
<path d="M0 0 C1.65 0 3.3 0 5 0 C5.99 2.31 6.98 4.62 8 7 C10.22189824 4.77810176 10.92598892 2.91517292 12 0 C13.65 0 15.3 0 17 0 C16.54548816 1.73017508 16.08621143 3.45909877 15.625 5.1875 C15.36976563 6.15042969 15.11453125 7.11335938 14.8515625 8.10546875 C14.05233704 10.82210207 13.0968638 13.39137175 12 16 C9.69 16 7.38 16 5 16 C4.16280617 13.70967689 3.3301071 11.41789043 2.5 9.125 C2.14228516 8.14853516 2.14228516 8.14853516 1.77734375 7.15234375 C0 2.2265625 0 2.2265625 0 0 Z " fill="#98166A" transform="translate(244,349)"/>
<path d="M0 0 C1.32 0 2.64 0 4 0 C4 1.32 4 2.64 4 4 C5.32 4 6.64 4 8 4 C8 5.32 8 6.64 8 8 C6.68 8 5.36 8 4 8 C4 10.64 4 13.28 4 16 C5.32 16 6.64 16 8 16 C8.33 17.32 8.66 18.64 9 20 C5.6875 20.6875 5.6875 20.6875 2 21 C0.28125 19.84375 0.28125 19.84375 -1 18 C-1.29296875 15.51953125 -1.29296875 15.51953125 -1.1875 12.8125 C-1.16042969 11.91144531 -1.13335937 11.01039063 -1.10546875 10.08203125 C-1.07066406 9.39496094 -1.03585937 8.70789063 -1 8 C-1.99 8 -2.98 8 -4 8 C-4 6.68 -4 5.36 -4 4 C-3.01 4 -2.02 4 -1 4 C-0.67 2.68 -0.34 1.36 0 0 Z " fill="#991668" transform="translate(281,345)"/>
<path d="M0 0 C1.65 0 3.3 0 5 0 C5 6.27 5 12.54 5 19 C5.99 19 6.98 19 8 19 C7.67 20.65 7.34 22.3 7 24 C4.625 23.6875 4.625 23.6875 2 23 C-0.13604308 19.79593538 -0.24208908 19.00399253 -0.1953125 15.33203125 C-0.18564453 13.99301758 -0.18564453 13.99301758 -0.17578125 12.62695312 C-0.15902344 11.69818359 -0.14226562 10.76941406 -0.125 9.8125 C-0.11597656 8.87212891 -0.10695312 7.93175781 -0.09765625 6.96289062 C-0.07409056 4.64167032 -0.04119116 2.32096356 0 0 Z " fill="#991568" transform="translate(219,342)"/>
<path d="M0 0 C2.64 0 5.28 0 8 0 C8 2.64 8 5.28 8 8 C5.36 8 2.72 8 0 8 C0 5.36 0 2.72 0 0 Z " fill="#F25847" transform="translate(324,202)"/>
<path d="M0 0 C2.64 0 5.28 0 8 0 C8 2.64 8 5.28 8 8 C5.36 8 2.72 8 0 8 C0 5.36 0 2.72 0 0 Z " fill="#F3643D" transform="translate(327,166)"/>
<path d="M0 0 C2.31 0 4.62 0 7 0 C7 2.64 7 5.28 7 8 C4.69 8 2.38 8 0 8 C0 5.36 0 2.72 0 0 Z " fill="#F57A26" transform="translate(360,159)"/>
</svg>
